<mxfile host="Electron" modified="2024-03-01T19:12:27.142Z" agent="Mozilla/5.0 (Windows NT 10.0; Win64; x64) AppleWebKit/537.36 (KHTML, like Gecko) draw.io/23.1.5 Chrome/120.0.6099.109 Electron/28.1.0 Safari/537.36" etag="5zebBeQqRmKKQEb8z9eh" version="23.1.5" type="device" pages="2">
  <diagram name="Страница — 1" id="tnS3ExUFaZjVEijZvK-k">
    <mxGraphModel dx="1502" dy="671" grid="1" gridSize="10" guides="1" tooltips="1" connect="1" arrows="1" fold="1" page="1" pageScale="1" pageWidth="1654" pageHeight="2336" math="0" shadow="0">
      <root>
        <mxCell id="0" />
        <mxCell id="1" parent="0" />
        <mxCell id="3tjH4Jz9tfa25P78iS0L-1" value="1.1" style="text;html=1;align=center;verticalAlign=middle;resizable=0;points=[];autosize=1;strokeColor=none;fillColor=none;" parent="1" vertex="1">
          <mxGeometry x="40" y="10" width="40" height="30" as="geometry" />
        </mxCell>
        <mxCell id="3tjH4Jz9tfa25P78iS0L-7" style="edgeStyle=orthogonalEdgeStyle;rounded=0;orthogonalLoop=1;jettySize=auto;html=1;exitX=0.5;exitY=1;exitDx=0;exitDy=0;entryX=0.5;entryY=0;entryDx=0;entryDy=0;" parent="1" source="3tjH4Jz9tfa25P78iS0L-2" target="3tjH4Jz9tfa25P78iS0L-5" edge="1">
          <mxGeometry relative="1" as="geometry" />
        </mxCell>
        <mxCell id="3tjH4Jz9tfa25P78iS0L-2" value="main" style="ellipse;whiteSpace=wrap;html=1;" parent="1" vertex="1">
          <mxGeometry x="125" y="20" width="100" height="50" as="geometry" />
        </mxCell>
        <mxCell id="3tjH4Jz9tfa25P78iS0L-3" value="main" style="ellipse;whiteSpace=wrap;html=1;" parent="1" vertex="1">
          <mxGeometry x="110" y="580" width="90" height="50" as="geometry" />
        </mxCell>
        <mxCell id="3tjH4Jz9tfa25P78iS0L-5" value="Инициализация временной теблицы:&lt;br&gt;pk varchar uuid&lt;br&gt;name varchar&lt;br&gt;free_p smallint" style="rounded=0;whiteSpace=wrap;html=1;" parent="1" vertex="1">
          <mxGeometry x="62.5" y="120" width="225" height="120" as="geometry" />
        </mxCell>
        <mxCell id="3tjH4Jz9tfa25P78iS0L-12" value="groups = Course.objects.select_related(Education)" style="rounded=0;whiteSpace=wrap;html=1;" parent="1" vertex="1">
          <mxGeometry x="69" y="330" width="751" height="200" as="geometry" />
        </mxCell>
      </root>
    </mxGraphModel>
  </diagram>
  <diagram id="FzJcc6xdVbD-ToeRnqTM" name="Страница — 2">
    <mxGraphModel dx="1502" dy="671" grid="1" gridSize="10" guides="1" tooltips="1" connect="1" arrows="1" fold="1" page="1" pageScale="1" pageWidth="827" pageHeight="1169" math="0" shadow="0">
      <root>
        <mxCell id="0" />
        <mxCell id="1" parent="0" />
      </root>
    </mxGraphModel>
  </diagram>
</mxfile>
